<svg version="1.0" id="Layer_1" xmlns="http://www.w3.org/2000/svg" xmlns:xlink="http://www.w3.org/1999/xlink" x="0px" y="0px"
	 width="24px" height="24px" viewBox="0 0 24 24" style="enable-background:new 0 0 24 24;" xml:space="preserve">
<style type="text/css">
	.st0{fill:none;stroke:#1E1E1E;stroke-width:2;stroke-linecap:round;stroke-linejoin:round;stroke-miterlimit:10;}
	.st1{fill:none;stroke:#1E1E1E;stroke-linecap:round;stroke-linejoin:round;stroke-miterlimit:10;}
	.st2{fill:#1E1E1E;}
	.st3{fill:none;stroke:#1E1E1E;stroke-width:2;stroke-linejoin:round;stroke-miterlimit:10;}
	.st4{fill:none;stroke:#1E1E1E;stroke-width:2;stroke-linecap:round;stroke-miterlimit:10;}
</style>
<g>
	<path class="st2" d="M12,2.1l10,4.2v14.9l-9.2-3.8c-0.2-0.1-0.5-0.2-0.8-0.2s-0.5,0.1-0.8,0.2L2,21.1V6.2L12,2.1 M12-0.1l-12,5
		v19.2l12-5l12,5V4.9L12-0.1L12-0.1z"/>
</g>
<line class="st1" x1="12" y1="1.4" x2="12" y2="17.6"/>
<ellipse transform="matrix(0.7737 -0.6336 0.6336 0.7737 -5.4159 15.1006)" class="st1" cx="18.4" cy="15.1" rx="1" ry="1.5"/>
<polyline class="st1" points="12,7.7 18.4,10.9 18.4,13.9 "/>
<line class="st1" x1="17.2" y1="14.6" x2="12" y2="12"/>
<polyline class="st1" points="16,9.5 16,6.7 22.3,9.5 "/>
<path class="st1" d="M6.1,14.5v-3.6c0-0.5,0.4-1.1,0.9-1.3l0,0c0.5-0.2,0.9,0.1,0.9,0.6v4.8c0,0.9-0.7,2-1.6,2.3l0,0
	c-0.9,0.4-1.6-0.1-1.6-1V9.9c0-1.3,1-2.8,2.2-3.3l0,0C8.1,6.1,9.1,6.7,9.1,8v5.2"/>
</svg>
