<svg version="1.0" id="Layer_1" xmlns="http://www.w3.org/2000/svg" xmlns:xlink="http://www.w3.org/1999/xlink" x="0px" y="0px"
	 width="24px" height="24px" viewBox="0 0 24 24" style="enable-background:new 0 0 24 24;" xml:space="preserve">
<style type="text/css">
	.st0{fill:none;stroke:#1E1E1E;stroke-width:2;stroke-linecap:round;stroke-linejoin:round;stroke-miterlimit:10;}
	.st1{fill:none;stroke:#1E1E1E;stroke-linecap:round;stroke-linejoin:round;stroke-miterlimit:10;}
	.st2{fill:#1E1E1E;}
	.st3{fill:none;stroke:#1E1E1E;stroke-width:2;stroke-linejoin:round;stroke-miterlimit:10;}
	.st4{fill:none;stroke:#1E1E1E;stroke-width:2;stroke-linecap:round;stroke-miterlimit:10;}
</style>
<g>
	<path class="st2" d="M20.1,2l0.5,0.5L22,3.8V22H2V2H20.1 M21,0H0v24h24V3C22.8,1.8,22.1,1.2,21,0L21,0z"/>
</g>
<path class="st2" d="M14.5,20.1h-5c-0.8,0-1.5-0.7-1.5-1.5v0c0-0.8,0.7-1.5,1.5-1.5h5c0.8,0,1.5,0.7,1.5,1.5v0
	C16,19.5,15.3,20.1,14.5,20.1z"/>
<g>
	<circle class="st1" cx="12" cy="9.3" r="2"/>
	<polygon class="st1" points="13,4.1 11,4.1 10.5,5.6 9.1,4.9 7.6,6.4 8.3,7.7 6.8,8.3 6.8,10.3 8.3,10.8 7.6,12.2 9.1,13.7 
		10.5,13 11,14.5 13,14.5 13.5,13 14.9,13.7 16.4,12.2 15.7,10.8 17.2,10.3 17.2,8.3 15.7,7.7 16.4,6.4 14.9,4.9 13.5,5.6 	"/>
</g>
</svg>
