<svg version="1.0" id="Layer_1" xmlns="http://www.w3.org/2000/svg" xmlns:xlink="http://www.w3.org/1999/xlink" x="0px" y="0px"
	 width="24px" height="24px" viewBox="0 0 24 24" style="enable-background:new 0 0 24 24;" xml:space="preserve">
<style type="text/css">
	.st0{fill:none;stroke:#1E1E1E;stroke-width:2;stroke-linecap:round;stroke-linejoin:round;stroke-miterlimit:10;}
	.st1{fill:none;stroke:#1E1E1E;stroke-linecap:round;stroke-linejoin:round;stroke-miterlimit:10;}
	.st2{fill:#1E1E1E;}
	.st3{fill:none;stroke:#1E1E1E;stroke-width:2;stroke-linejoin:round;stroke-miterlimit:10;}
	.st4{fill:none;stroke:#1E1E1E;stroke-width:2;stroke-linecap:round;stroke-miterlimit:10;}
</style>
<polyline class="st3" points="0,1 17,1 17,17.6 0,17.6 "/>
<polyline class="st3" points="24,17.6 20.5,17.6 20.5,1 24,1 "/>
<g>
	<path class="st2" d="M8,22.8L8,22.8c-0.8,0-1.5-0.7-1.5-1.5v0c0-0.8,0.7-1.5,1.5-1.5l0,0c0.8,0,1.5,0.7,1.5,1.5v0
		C9.5,22.1,8.8,22.8,8,22.8z"/>
	<g>
		<path class="st2" d="M12,20.8c0.3,0,0.5,0.2,0.5,0.5s-0.2,0.5-0.5,0.5s-0.5-0.2-0.5-0.5S11.7,20.8,12,20.8 M12,19.8
			c-0.8,0-1.5,0.7-1.5,1.5c0,0.8,0.7,1.5,1.5,1.5s1.5-0.7,1.5-1.5C13.5,20.4,12.8,19.8,12,19.8L12,19.8z"/>
	</g>
	<g>
		<path class="st2" d="M16,20.8c0.3,0,0.5,0.2,0.5,0.5s-0.2,0.5-0.5,0.5s-0.5-0.2-0.5-0.5S15.7,20.8,16,20.8 M16,19.8
			c-0.8,0-1.5,0.7-1.5,1.5c0,0.8,0.7,1.5,1.5,1.5c0.8,0,1.5-0.7,1.5-1.5C17.5,20.4,16.8,19.8,16,19.8L16,19.8z"/>
	</g>
</g>
<g>
	<path class="st1" d="M3.5,9.7l-1.2,3.4c-0.2,0.7,0.3,1.3,0.9,1.3h6.4c0.7,0,1.2-0.7,0.9-1.3L9.5,9.7C9.3,9.4,8.9,9.1,8.5,9.1H4.5
		C4.1,9.1,3.7,9.4,3.5,9.7z"/>
	<line class="st1" x1="9" y1="14.5" x2="7.9" y2="10.7"/>
	<line class="st1" x1="5.3" y1="10.7" x2="4" y2="14.5"/>
	<circle class="st1" cx="6.5" cy="6.6" r="2.5"/>
</g>
</svg>
