<svg version="1.0" id="Layer_1" xmlns="http://www.w3.org/2000/svg" xmlns:xlink="http://www.w3.org/1999/xlink" x="0px" y="0px"
	 width="24px" height="24px" viewBox="0 0 24 24" style="enable-background:new 0 0 24 24;" xml:space="preserve">
<style type="text/css">
	.st0{fill:none;stroke:#1E1E1E;stroke-width:2;stroke-linecap:round;stroke-linejoin:round;stroke-miterlimit:10;}
	.st1{fill:none;stroke:#1E1E1E;stroke-linecap:round;stroke-linejoin:round;stroke-miterlimit:10;}
	.st2{fill:#1E1E1E;}
	.st3{fill:none;stroke:#1E1E1E;stroke-width:2;stroke-linejoin:round;stroke-miterlimit:10;}
	.st4{fill:none;stroke:#1E1E1E;stroke-width:2;stroke-linecap:round;stroke-miterlimit:10;}
</style>
<g>
	<path class="st1" d="M5,8.5l-1.4,4.1c-0.3,0.8,0.3,1.6,1.1,1.6h7.7c0.8,0,1.4-0.8,1.1-1.6l-1.4-4.1C11.9,8,11.5,7.7,11,7.7H6.1
		C5.6,7.7,5.2,8,5,8.5z"/>
	<line class="st1" x1="11.5" y1="14.2" x2="10.3" y2="9.7"/>
	<line class="st1" x1="7.1" y1="9.7" x2="5.6" y2="14.2"/>
	<circle class="st1" cx="8.6" cy="4.7" r="3"/>
</g>
<rect x="1.5" y="17.5" class="st0" width="5" height="5"/>
<rect x="9.5" y="17.5" class="st0" width="5" height="5"/>
<rect x="17.5" y="17.5" class="st0" width="5" height="5"/>
<rect x="17.5" y="9.5" class="st0" width="5" height="5"/>
<rect x="17.5" y="1.5" class="st0" width="5" height="5"/>
</svg>
