<svg version="1.0" id="Layer_1" xmlns="http://www.w3.org/2000/svg" xmlns:xlink="http://www.w3.org/1999/xlink" x="0px" y="0px"
	 width="24px" height="24px" viewBox="0 0 24 24" style="enable-background:new 0 0 24 24;" xml:space="preserve">
<style type="text/css">
	.st0{fill:none;stroke:#1E1E1E;stroke-width:2;stroke-linecap:round;stroke-linejoin:round;stroke-miterlimit:10;}
	.st1{fill:none;stroke:#1E1E1E;stroke-linecap:round;stroke-linejoin:round;stroke-miterlimit:10;}
	.st2{fill:#1E1E1E;}
	.st3{fill:none;stroke:#1E1E1E;stroke-width:2;stroke-linejoin:round;stroke-miterlimit:10;}
	.st4{fill:none;stroke:#1E1E1E;stroke-width:2;stroke-linecap:round;stroke-miterlimit:10;}
</style>
<g>
	<path class="st2" d="M20.1,2l0.5,0.5L22,3.8V22H2V2H20.1 M21,0H0v24h24V3C22.8,1.8,22.1,1.2,21,0L21,0z"/>
</g>
<path class="st2" d="M14.5,20.1h-5c-0.8,0-1.5-0.7-1.5-1.5v0c0-0.8,0.7-1.5,1.5-1.5h5c0.8,0,1.5,0.7,1.5,1.5v0
	C16,19.5,15.3,20.1,14.5,20.1z"/>
<path class="st1" d="M11.1,11.7V8c0-0.5,0.4-1,1-1h0c0.5,0,1,0.4,1,1v4.8c0,0.9-0.8,1.7-1.7,1.7h0c-0.9,0-1.7-0.8-1.7-1.7V6.5
	c0-1.3,1.1-2.4,2.4-2.4h0c1.3,0,2.4,1.1,2.4,2.4v5.2"/>
</svg>
