<svg version="1.0" id="Layer_1" xmlns="http://www.w3.org/2000/svg" xmlns:xlink="http://www.w3.org/1999/xlink" x="0px" y="0px"
	 width="24px" height="24px" viewBox="0 0 24 24" style="enable-background:new 0 0 24 24;" xml:space="preserve">
<style type="text/css">
	.st0{fill:none;stroke:#1E1E1E;stroke-width:2;stroke-linecap:round;stroke-linejoin:round;stroke-miterlimit:10;}
	.st1{fill:none;stroke:#1E1E1E;stroke-linecap:round;stroke-linejoin:round;stroke-miterlimit:10;}
	.st2{fill:#1E1E1E;}
	.st3{fill:none;stroke:#1E1E1E;stroke-width:2;stroke-linejoin:round;stroke-miterlimit:10;}
	.st4{fill:none;stroke:#1E1E1E;stroke-width:2;stroke-linecap:round;stroke-miterlimit:10;}
</style>
<g>
	<circle class="st1" cx="8.1" cy="8.2" r="2.4"/>
	<polygon class="st1" points="9.3,2 6.8,2 6.2,3.8 4.5,3 2.8,4.7 3.6,6.4 1.8,7 1.8,9.5 3.6,10.1 2.8,11.8 4.5,13.5 6.2,12.7 
		6.8,14.5 9.3,14.5 9.9,12.7 11.6,13.5 13.4,11.8 12.6,10.1 14.3,9.5 14.3,7 12.6,6.4 13.4,4.7 11.6,3 9.9,3.8 	"/>
</g>
<rect x="1.5" y="17.5" class="st0" width="5" height="5"/>
<rect x="9.5" y="17.5" class="st0" width="5" height="5"/>
<rect x="17.5" y="17.5" class="st0" width="5" height="5"/>
<rect x="17.5" y="9.5" class="st0" width="5" height="5"/>
<rect x="17.5" y="1.5" class="st0" width="5" height="5"/>
</svg>
