<svg version="1.0" id="Layer_1" xmlns="http://www.w3.org/2000/svg" xmlns:xlink="http://www.w3.org/1999/xlink" x="0px" y="0px"
	 width="24px" height="24px" viewBox="0 0 24 24" style="enable-background:new 0 0 24 24;" xml:space="preserve">
<style type="text/css">
	.st0{fill:none;stroke:#1E1E1E;stroke-width:2;stroke-linecap:round;stroke-linejoin:round;stroke-miterlimit:10;}
	.st1{fill:none;stroke:#1E1E1E;stroke-linecap:round;stroke-linejoin:round;stroke-miterlimit:10;}
	.st2{fill:#1E1E1E;}
	.st3{fill:none;stroke:#1E1E1E;stroke-width:2;stroke-linejoin:round;stroke-miterlimit:10;}
	.st4{fill:none;stroke:#1E1E1E;stroke-width:2;stroke-linecap:round;stroke-miterlimit:10;}
</style>
<g>
	<path class="st2" d="M20.1,2l1.3,1.3L22,3.8V22H2V2H20.1 M21,0H0v24h24V3C22.8,1.8,22.1,1.2,21,0L21,0z"/>
</g>
<path class="st2" d="M14.5,20.1h-5c-0.8,0-1.5-0.7-1.5-1.5v0c0-0.8,0.7-1.5,1.5-1.5h5c0.8,0,1.5,0.7,1.5,1.5v0
	C16,19.5,15.3,20.1,14.5,20.1z"/>
<path class="st1" d="M9,9.7l-1.2,3.4c-0.2,0.7,0.3,1.3,0.9,1.3h6.4c0.7,0,1.2-0.7,0.9-1.3l-1.2-3.4c-0.2-0.4-0.5-0.6-0.9-0.6H10
	C9.6,9.1,9.2,9.3,9,9.7z"/>
<line class="st1" x1="14.5" y1="14.5" x2="13.4" y2="10.7"/>
<line class="st1" x1="10.8" y1="10.7" x2="9.5" y2="14.5"/>
<circle class="st1" cx="12" cy="6.6" r="2.5"/>
</svg>
