<svg version="1.0" id="Layer_1" xmlns="http://www.w3.org/2000/svg" xmlns:xlink="http://www.w3.org/1999/xlink" x="0px" y="0px"
	 width="24px" height="24px" viewBox="0 0 24 24" style="enable-background:new 0 0 24 24;" xml:space="preserve">
<style type="text/css">
	.st0{fill:none;stroke:#1E1E1E;stroke-width:2;stroke-linecap:round;stroke-linejoin:round;stroke-miterlimit:10;}
	.st1{fill:none;stroke:#1E1E1E;stroke-linecap:round;stroke-linejoin:round;stroke-miterlimit:10;}
	.st2{fill:#1E1E1E;}
	.st3{fill:none;stroke:#1E1E1E;stroke-width:2;stroke-linejoin:round;stroke-miterlimit:10;}
	.st4{fill:none;stroke:#1E1E1E;stroke-width:2;stroke-linecap:round;stroke-miterlimit:10;}
</style>
<line class="st1" x1="0.5" y1="7.3" x2="12.5" y2="7.3"/>
<line class="st1" x1="0.5" y1="9.3" x2="12.5" y2="9.3"/>
<line class="st1" x1="0.5" y1="11.3" x2="6.5" y2="11.3"/>
<polyline class="st3" points="0,1 17,1 17,17.6 0,17.6 "/>
<polyline class="st3" points="24,17.6 20.5,17.6 20.5,1 24,1 "/>
<g>
	<path class="st2" d="M8,22.8L8,22.8c-0.8,0-1.5-0.7-1.5-1.5v0c0-0.8,0.7-1.5,1.5-1.5l0,0c0.8,0,1.5,0.7,1.5,1.5v0
		C9.5,22.1,8.8,22.8,8,22.8z"/>
	<g>
		<path class="st2" d="M12,20.8c0.3,0,0.5,0.2,0.5,0.5s-0.2,0.5-0.5,0.5s-0.5-0.2-0.5-0.5S11.7,20.8,12,20.8 M12,19.8
			c-0.8,0-1.5,0.7-1.5,1.5c0,0.8,0.7,1.5,1.5,1.5s1.5-0.7,1.5-1.5C13.5,20.4,12.8,19.8,12,19.8L12,19.8z"/>
	</g>
	<g>
		<path class="st2" d="M16,20.8c0.3,0,0.5,0.2,0.5,0.5s-0.2,0.5-0.5,0.5s-0.5-0.2-0.5-0.5S15.7,20.8,16,20.8 M16,19.8
			c-0.8,0-1.5,0.7-1.5,1.5c0,0.8,0.7,1.5,1.5,1.5c0.8,0,1.5-0.7,1.5-1.5C17.5,20.4,16.8,19.8,16,19.8L16,19.8z"/>
	</g>
</g>
</svg>
